<svg xmlns="http://www.w3.org/2000/svg" xmlns:xlink="http://www.w3.org/1999/xlink" width="500" zoomAndPan="magnify" viewBox="0 0 375 374.999991" height="500" preserveAspectRatio="xMidYMid meet" version="1.0"><defs><clipPath id="67ed13691a"><path d="M 281 361 L 361.359375 361 L 361.359375 375 L 281 375 Z M 281 361 " clip-rule="nonzero"/></clipPath><clipPath id="2aefa68463"><path d="M 13.359375 361 L 27 361 L 27 375 L 13.359375 375 Z M 13.359375 361 " clip-rule="nonzero"/></clipPath></defs><path fill="#e0eded" d="M 294.414062 308.035156 L 294.414062 294.644531 L 254.269531 294.644531 L 254.269531 308.035156 L 240.886719 308.035156 L 240.886719 294.644531 L 227.503906 294.644531 L 227.503906 267.855469 L 214.125 267.855469 L 214.125 281.25 L 200.742188 281.25 L 200.742188 227.679688 L 173.976562 227.679688 L 173.976562 308.035156 L 160.59375 308.035156 L 160.59375 281.25 L 133.832031 281.25 L 133.832031 308.035156 L 120.449219 308.035156 L 120.449219 321.429688 L 107.066406 321.429688 L 107.066406 308.035156 L 80.304688 308.035156 L 80.304688 321.429688 L 66.921875 321.429688 L 66.921875 348.214844 L 80.304688 348.214844 L 80.304688 361.605469 L 93.683594 361.605469 L 93.683594 375 L 281.035156 375 L 281.035156 361.605469 L 307.796875 361.605469 L 307.796875 308.035156 Z M 294.414062 308.035156 " fill-opacity="1" fill-rule="nonzero"/><path fill="#c7dbde" d="M 147.214844 80.355469 L 227.503906 80.355469 L 227.503906 187.5 L 147.214844 187.5 Z M 147.214844 80.355469 " fill-opacity="1" fill-rule="nonzero"/><path fill="#bd2953" d="M 173.976562 0 L 200.742188 0 L 200.742188 13.394531 L 173.976562 13.394531 Z M 173.976562 0 " fill-opacity="1" fill-rule="nonzero"/><path fill="#bd2953" d="M 160.59375 13.394531 L 173.976562 13.394531 L 173.976562 26.785156 L 160.59375 26.785156 Z M 160.59375 13.394531 " fill-opacity="1" fill-rule="nonzero"/><path fill="#bd2953" d="M 200.742188 13.394531 L 214.125 13.394531 L 214.125 26.785156 L 200.742188 26.785156 Z M 200.742188 13.394531 " fill-opacity="1" fill-rule="nonzero"/><path fill="#bd2953" d="M 147.214844 26.785156 L 160.59375 26.785156 L 160.59375 40.179688 L 147.214844 40.179688 Z M 147.214844 26.785156 " fill-opacity="1" fill-rule="nonzero"/><path fill="#bd2953" d="M 214.125 26.785156 L 227.503906 26.785156 L 227.503906 40.179688 L 214.125 40.179688 Z M 214.125 26.785156 " fill-opacity="1" fill-rule="nonzero"/><path fill="#bd2953" d="M 133.832031 40.179688 L 147.214844 40.179688 L 147.214844 80.355469 L 133.832031 80.355469 Z M 133.832031 40.179688 " fill-opacity="1" fill-rule="nonzero"/><path fill="#bd2953" d="M 227.503906 40.179688 L 240.886719 40.179688 L 240.886719 80.355469 L 227.503906 80.355469 Z M 227.503906 40.179688 " fill-opacity="1" fill-rule="nonzero"/><path fill="#242c49" d="M 147.214844 187.5 L 227.503906 187.5 L 227.503906 200.894531 L 147.214844 200.894531 Z M 147.214844 187.5 " fill-opacity="1" fill-rule="nonzero"/><path fill="#415677" d="M 147.214844 200.894531 L 160.59375 200.894531 L 160.59375 214.285156 L 147.214844 214.285156 Z M 147.214844 200.894531 " fill-opacity="1" fill-rule="nonzero"/><path fill="#415677" d="M 214.125 200.894531 L 227.503906 200.894531 L 227.503906 214.285156 L 214.125 214.285156 Z M 214.125 200.894531 " fill-opacity="1" fill-rule="nonzero"/><path fill="#415677" d="M 160.59375 214.285156 L 214.125 214.285156 L 214.125 227.679688 L 160.59375 227.679688 Z M 160.59375 214.285156 " fill-opacity="1" fill-rule="nonzero"/><path fill="#a8b8c2" d="M 160.59375 227.679688 L 173.976562 227.679688 L 173.976562 308.035156 L 160.59375 308.035156 Z M 160.59375 227.679688 " fill-opacity="1" fill-rule="nonzero"/><path fill="#a8b8c2" d="M 200.742188 227.679688 L 214.125 227.679688 L 214.125 281.25 L 200.742188 281.25 Z M 200.742188 227.679688 " fill-opacity="1" fill-rule="nonzero"/><path fill="#415677" d="M 173.976562 93.75 L 200.742188 93.75 L 200.742188 107.144531 L 173.976562 107.144531 Z M 173.976562 93.75 " fill-opacity="1" fill-rule="nonzero"/><path fill="#415677" d="M 160.59375 107.144531 L 173.976562 107.144531 L 173.976562 133.929688 L 160.59375 133.929688 Z M 160.59375 107.144531 " fill-opacity="1" fill-rule="nonzero"/><path fill="#415677" d="M 200.742188 107.144531 L 214.125 107.144531 L 214.125 133.929688 L 200.742188 133.929688 Z M 200.742188 107.144531 " fill-opacity="1" fill-rule="nonzero"/><path fill="#415677" d="M 173.976562 133.929688 L 200.742188 133.929688 L 200.742188 147.320312 L 173.976562 147.320312 Z M 173.976562 133.929688 " fill-opacity="1" fill-rule="nonzero"/><path fill="#bd2953" d="M 147.214844 66.964844 L 227.503906 66.964844 L 227.503906 80.355469 L 147.214844 80.355469 Z M 147.214844 66.964844 " fill-opacity="1" fill-rule="nonzero"/><path fill="#bd2953" d="M 120.449219 120.535156 L 133.832031 120.535156 L 133.832031 133.929688 L 120.449219 133.929688 Z M 120.449219 120.535156 " fill-opacity="1" fill-rule="nonzero"/><path fill="#bd2953" d="M 107.066406 133.929688 L 120.449219 133.929688 L 120.449219 147.320312 L 107.066406 147.320312 Z M 107.066406 133.929688 " fill-opacity="1" fill-rule="nonzero"/><path fill="#bd2953" d="M 93.683594 147.320312 L 107.066406 147.320312 L 107.066406 214.285156 L 93.683594 214.285156 Z M 93.683594 147.320312 " fill-opacity="1" fill-rule="nonzero"/><path fill="#902055" d="M 120.449219 174.105469 L 133.832031 174.105469 L 133.832031 187.5 L 120.449219 187.5 Z M 120.449219 174.105469 " fill-opacity="1" fill-rule="nonzero"/><path fill="#902055" d="M 107.066406 187.5 L 120.449219 187.5 L 120.449219 200.894531 L 107.066406 200.894531 Z M 107.066406 187.5 " fill-opacity="1" fill-rule="nonzero"/><path fill="#bd2953" d="M 254.269531 133.929688 L 240.886719 133.929688 L 240.886719 120.535156 L 254.269531 120.535156 Z M 254.269531 133.929688 " fill-opacity="1" fill-rule="nonzero"/><path fill="#bd2953" d="M 267.652344 147.320312 L 254.269531 147.320312 L 254.269531 133.929688 L 267.652344 133.929688 Z M 267.652344 147.320312 " fill-opacity="1" fill-rule="nonzero"/><path fill="#bd2953" d="M 281.035156 214.285156 L 267.652344 214.285156 L 267.652344 147.320312 L 281.035156 147.320312 Z M 281.035156 214.285156 " fill-opacity="1" fill-rule="nonzero"/><path fill="#902055" d="M 254.269531 187.5 L 240.886719 187.5 L 240.886719 174.105469 L 254.269531 174.105469 Z M 254.269531 187.5 " fill-opacity="1" fill-rule="nonzero"/><path fill="#902055" d="M 267.652344 200.894531 L 254.269531 200.894531 L 254.269531 187.5 L 267.652344 187.5 Z M 267.652344 200.894531 " fill-opacity="1" fill-rule="nonzero"/><path fill="#a8b8c2" d="M 133.832031 267.855469 L 160.59375 267.855469 L 160.59375 281.25 L 133.832031 281.25 Z M 133.832031 267.855469 " fill-opacity="1" fill-rule="nonzero"/><path fill="#a8b8c2" d="M 120.449219 281.25 L 133.832031 281.25 L 133.832031 308.035156 L 120.449219 308.035156 Z M 120.449219 281.25 " fill-opacity="1" fill-rule="nonzero"/><path fill="#a8b8c2" d="M 214.125 254.464844 L 227.503906 254.464844 L 227.503906 267.855469 L 214.125 267.855469 Z M 214.125 254.464844 " fill-opacity="1" fill-rule="nonzero"/><path fill="#a8b8c2" d="M 227.503906 267.855469 L 240.886719 267.855469 L 240.886719 294.644531 L 227.503906 294.644531 Z M 227.503906 267.855469 " fill-opacity="1" fill-rule="nonzero"/><path fill="#a8b8c2" d="M 240.886719 294.644531 L 254.269531 294.644531 L 254.269531 308.035156 L 240.886719 308.035156 Z M 240.886719 294.644531 " fill-opacity="1" fill-rule="nonzero"/><path fill="#a8b8c2" d="M 254.269531 281.25 L 294.414062 281.25 L 294.414062 294.644531 L 254.269531 294.644531 Z M 254.269531 281.25 " fill-opacity="1" fill-rule="nonzero"/><path fill="#a8b8c2" d="M 294.414062 294.644531 L 307.796875 294.644531 L 307.796875 308.035156 L 294.414062 308.035156 Z M 294.414062 294.644531 " fill-opacity="1" fill-rule="nonzero"/><path fill="#a8b8c2" d="M 307.796875 308.035156 L 321.179688 308.035156 L 321.179688 348.214844 L 307.796875 348.214844 Z M 307.796875 308.035156 " fill-opacity="1" fill-rule="nonzero"/><path fill="#a8b8c2" d="M 294.414062 348.214844 L 307.796875 348.214844 L 307.796875 361.605469 L 294.414062 361.605469 Z M 294.414062 348.214844 " fill-opacity="1" fill-rule="nonzero"/><g clip-path="url(#67ed13691a)"><path fill="#a8b8c2" d="M 281.035156 361.605469 L 361.324219 361.605469 L 361.324219 375 L 281.035156 375 Z M 281.035156 361.605469 " fill-opacity="1" fill-rule="nonzero"/></g><path fill="#a8b8c2" d="M 40.15625 361.605469 L 93.683594 361.605469 L 93.683594 375 L 40.15625 375 Z M 40.15625 361.605469 " fill-opacity="1" fill-rule="nonzero"/><path fill="#a8b8c2" d="M 53.539062 321.429688 L 66.921875 321.429688 L 66.921875 348.214844 L 53.539062 348.214844 Z M 53.539062 321.429688 " fill-opacity="1" fill-rule="nonzero"/><path fill="#a8b8c2" d="M 66.921875 308.035156 L 80.304688 308.035156 L 80.304688 321.429688 L 66.921875 321.429688 Z M 66.921875 308.035156 " fill-opacity="1" fill-rule="nonzero"/><path fill="#a8b8c2" d="M 107.066406 308.035156 L 120.449219 308.035156 L 120.449219 321.429688 L 107.066406 321.429688 Z M 107.066406 308.035156 " fill-opacity="1" fill-rule="nonzero"/><path fill="#a8b8c2" d="M 66.921875 348.214844 L 80.304688 348.214844 L 80.304688 361.605469 L 66.921875 361.605469 Z M 66.921875 348.214844 " fill-opacity="1" fill-rule="nonzero"/><path fill="#a8b8c2" d="M 80.304688 294.644531 L 107.066406 294.644531 L 107.066406 308.035156 L 80.304688 308.035156 Z M 80.304688 294.644531 " fill-opacity="1" fill-rule="nonzero"/><path fill="#a8b8c2" d="M 120.449219 348.214844 L 133.832031 348.214844 L 133.832031 361.605469 L 120.449219 361.605469 Z M 120.449219 348.214844 " fill-opacity="1" fill-rule="nonzero"/><path fill="#a8b8c2" d="M 133.832031 334.820312 L 147.214844 334.820312 L 147.214844 348.214844 L 133.832031 348.214844 Z M 133.832031 334.820312 " fill-opacity="1" fill-rule="nonzero"/><path fill="#a8b8c2" d="M 214.125 321.429688 L 240.886719 321.429688 L 240.886719 334.820312 L 214.125 334.820312 Z M 214.125 321.429688 " fill-opacity="1" fill-rule="nonzero"/><path fill="#a8b8c2" d="M 240.886719 334.820312 L 254.269531 334.820312 L 254.269531 361.605469 L 240.886719 361.605469 Z M 240.886719 334.820312 " fill-opacity="1" fill-rule="nonzero"/><g clip-path="url(#2aefa68463)"><path fill="#a8b8c2" d="M 13.394531 361.605469 L 26.773438 361.605469 L 26.773438 375 L 13.394531 375 Z M 13.394531 361.605469 " fill-opacity="1" fill-rule="nonzero"/></g><path fill="#738794" d="M 133.832031 80.355469 L 147.214844 80.355469 L 147.214844 187.5 L 133.832031 187.5 Z M 133.832031 80.355469 " fill-opacity="1" fill-rule="nonzero"/><path fill="#738794" d="M 227.503906 80.355469 L 240.886719 80.355469 L 240.886719 187.5 L 227.503906 187.5 Z M 227.503906 80.355469 " fill-opacity="1" fill-rule="nonzero"/><path fill="#f35154" d="M 214.125 40.179688 L 214.125 26.785156 L 200.742188 26.785156 L 200.742188 13.394531 L 173.976562 13.394531 L 173.976562 26.785156 L 160.59375 26.785156 L 160.59375 40.179688 L 147.214844 40.179688 L 147.214844 66.964844 L 227.503906 66.964844 L 227.503906 40.179688 Z M 214.125 40.179688 " fill-opacity="1" fill-rule="nonzero"/><path fill="#fd876b" d="M 147.214844 40.179688 L 160.59375 40.179688 L 160.59375 66.964844 L 147.214844 66.964844 Z M 147.214844 40.179688 " fill-opacity="1" fill-rule="nonzero"/><path fill="#fd876b" d="M 160.59375 26.785156 L 173.976562 26.785156 L 173.976562 40.179688 L 160.59375 40.179688 Z M 160.59375 26.785156 " fill-opacity="1" fill-rule="nonzero"/><path fill="#fd876b" d="M 173.976562 13.394531 L 200.742188 13.394531 L 200.742188 26.785156 L 173.976562 26.785156 Z M 173.976562 13.394531 " fill-opacity="1" fill-rule="nonzero"/><path fill="#e0eded" d="M 173.976562 107.144531 L 200.742188 107.144531 L 200.742188 133.929688 L 173.976562 133.929688 Z M 173.976562 107.144531 " fill-opacity="1" fill-rule="nonzero"/><path fill="#e0eded" d="M 147.214844 80.355469 L 160.59375 80.355469 L 160.59375 174.105469 L 147.214844 174.105469 Z M 147.214844 80.355469 " fill-opacity="1" fill-rule="nonzero"/><path fill="#a8b8c2" d="M 160.59375 174.105469 L 227.503906 174.105469 L 227.503906 187.5 L 160.59375 187.5 Z M 160.59375 174.105469 " fill-opacity="1" fill-rule="nonzero"/><path fill="#415677" d="M 160.59375 200.894531 L 214.125 200.894531 L 214.125 214.285156 L 160.59375 214.285156 Z M 160.59375 200.894531 " fill-opacity="1" fill-rule="nonzero"/><path fill="#f35154" d="M 254.269531 147.320312 L 254.269531 133.929688 L 240.886719 133.929688 L 240.886719 174.105469 L 254.269531 174.105469 L 254.269531 187.5 L 267.652344 187.5 L 267.652344 147.320312 Z M 254.269531 147.320312 " fill-opacity="1" fill-rule="nonzero"/><path fill="#f35154" d="M 120.449219 133.929688 L 120.449219 147.320312 L 107.066406 147.320312 L 107.066406 187.5 L 120.449219 187.5 L 120.449219 174.332031 L 133.832031 174.332031 L 133.832031 133.929688 Z M 120.449219 133.929688 " fill-opacity="1" fill-rule="nonzero"/><path fill="#fd876b" d="M 120.449219 133.929688 L 133.832031 133.929688 L 133.832031 147.320312 L 120.449219 147.320312 Z M 120.449219 133.929688 " fill-opacity="1" fill-rule="nonzero"/><path fill="#fd876b" d="M 107.066406 147.320312 L 120.449219 147.320312 L 120.449219 174.105469 L 107.066406 174.105469 Z M 107.066406 147.320312 " fill-opacity="1" fill-rule="nonzero"/><path fill="#ffffff" d="M 66.921875 321.429688 L 80.304688 321.429688 L 80.304688 348.214844 L 66.921875 348.214844 Z M 66.921875 321.429688 " fill-opacity="1" fill-rule="nonzero"/><path fill="#ffffff" d="M 80.304688 308.035156 L 107.066406 308.035156 L 107.066406 321.429688 L 80.304688 321.429688 Z M 80.304688 308.035156 " fill-opacity="1" fill-rule="nonzero"/><path fill="#ffffff" d="M 133.832031 281.25 L 147.214844 281.25 L 147.214844 308.035156 L 133.832031 308.035156 Z M 133.832031 281.25 " fill-opacity="1" fill-rule="nonzero"/><path fill="#ffffff" d="M 147.214844 281.25 L 160.59375 281.25 L 160.59375 294.644531 L 147.214844 294.644531 Z M 147.214844 281.25 " fill-opacity="1" fill-rule="nonzero"/><path fill="#ffffff" d="M 173.976562 241.070312 L 187.359375 241.070312 L 187.359375 294.644531 L 173.976562 294.644531 Z M 173.976562 241.070312 " fill-opacity="1" fill-rule="nonzero"/><path fill="#ffffff" d="M 173.976562 308.035156 L 187.359375 308.035156 L 187.359375 321.429688 L 173.976562 321.429688 Z M 173.976562 308.035156 " fill-opacity="1" fill-rule="nonzero"/><path fill="#ffffff" d="M 200.742188 294.644531 L 214.125 294.644531 L 214.125 308.035156 L 200.742188 308.035156 Z M 200.742188 294.644531 " fill-opacity="1" fill-rule="nonzero"/><path fill="#ffffff" d="M 214.125 334.820312 L 240.886719 334.820312 L 240.886719 348.214844 L 214.125 348.214844 Z M 214.125 334.820312 " fill-opacity="1" fill-rule="nonzero"/><path fill="#ffffff" d="M 227.503906 348.214844 L 240.886719 348.214844 L 240.886719 361.605469 L 227.503906 361.605469 Z M 227.503906 348.214844 " fill-opacity="1" fill-rule="nonzero"/><path fill="#ffffff" d="M 133.832031 348.214844 L 147.214844 348.214844 L 147.214844 361.605469 L 133.832031 361.605469 Z M 133.832031 348.214844 " fill-opacity="1" fill-rule="nonzero"/><path fill="#ffffff" d="M 214.125 267.855469 L 227.503906 267.855469 L 227.503906 281.25 L 214.125 281.25 Z M 214.125 267.855469 " fill-opacity="1" fill-rule="nonzero"/><path fill="#ffffff" d="M 267.652344 294.644531 L 294.414062 294.644531 L 294.414062 308.035156 L 267.652344 308.035156 Z M 267.652344 294.644531 " fill-opacity="1" fill-rule="nonzero"/><path fill="#ffffff" d="M 294.414062 308.035156 L 307.796875 308.035156 L 307.796875 334.820312 L 294.414062 334.820312 Z M 294.414062 308.035156 " fill-opacity="1" fill-rule="nonzero"/></svg>